Coordinates
version=1
nRows=14
nColumns=24
inDegrees=yes

Units are S.I. units (second, meters, Newtons, ...)
Angles are in degrees.

endheader
time	pelvis_tilt	pelvis_list	pelvis_rotation	pelvis_tx	pelvis_ty	pelvis_tz	hip_flexion_r	hip_adduction_r	hip_rotation_r	knee_angle_r	ankle_angle_r	subtalar_angle_r	mtp_angle_r	hip_flexion_l	hip_adduction_l	hip_rotation_l	knee_angle_l	ankle_angle_l	subtalar_angle_l	mtp_angle_l	lumbar_extension	lumbar_bending	lumbar_rotation
      3.78000000	     -8.71652575	     -3.63588770	     10.96376767	     -1.15055243	     -0.04899934	      0.60655908	     36.18969652	     -2.85315184	    -21.35164228	    -11.40095170	     -0.92821316	      4.22713982	      2.52319660	     -8.68213663	     -2.42056425	      9.77290916	    -11.75987478	     15.20597218	      9.35316928	     12.50616316	      4.96155661	      1.36498785	    -14.18827868
      3.78500000	     -8.70059529	     -4.00651057	     11.00872202	     -1.14264609	     -0.05030313	      0.60667639	     36.23186255	     -2.46477951	    -21.33259071	    -11.96191008	     -1.48934979	      4.18615367	      2.20610069	     -8.83680915	     -2.95691625	      9.40699293	    -12.35521937	     15.21367815	     10.01897177	     13.19675636	      5.10056809	      1.81891507	    -14.23923267
      3.79000000	     -8.73216333	     -4.36975757	     10.98172920	     -1.13469781	     -0.05160775	      0.60687091	     36.34902378	     -2.06547187	    -21.20933851	    -12.58786048	     -2.23981521	      4.00307270	      2.25097568	     -8.95106527	     -3.45806769	      9.10622059	    -12.96886401	     15.14357714	     10.53107374	     13.70389646	      5.29276628	      2.26631336	    -14.20743837
      3.79500000	     -8.76751787	     -4.77723804	     10.96180481	     -1.12671686	     -0.05281774	      0.60701962	     36.47309625	     -1.64641592	    -21.04565162	    -13.25144014	     -3.12818802	      3.72528409	      2.37181881	     -9.02054642	     -4.00295798	      8.80100247	    -13.64403265	     15.01508508	     11.06151163	     14.20675020	      5.50604000	      2.76420298	    -14.16878507
      3.80000000	     -8.79721269	     -5.18583172	     10.88160896	     -1.11872998	     -0.05395210	      0.60727292	     36.63756456	     -1.20381306	    -20.85283121	    -14.02324066	     -4.10367575	      3.27691183	      2.45834585	     -9.07723898	     -4.54820229	      8.38056679	    -14.36117346	     14.80325128	     11.64409625	     14.79396606	      5.70752014	      3.26881622	    -14.08293375
      3.80500000	     -8.84043054	     -5.62617769	     10.78906781	     -1.11072027	     -0.05498806	      0.60750804	     36.83043485	     -0.74196096	    -20.59628280	    -14.85452920	     -5.09403177	      2.74051659	      2.40741960	     -9.08000453	     -5.11932940	      7.96218596	    -15.14345860	     14.49701207	     12.21237806	     15.42464419	      5.93572272	      3.81267897	    -13.97327473
      3.81000000	     -8.89002264	     -6.07931660	     10.65968873	     -1.10269414	     -0.05592405	      0.60776747	     37.05619019	     -0.25849923	    -20.27657902	    -15.76590921	     -6.05419487	      2.07767311	      2.18608935	     -9.04141157	     -5.70013462	      7.47900902	    -15.99016934	     14.08814068	     12.81499679	     16.14465010	      6.17380967	      4.37654669	    -13.82014605
      3.81500000	     -8.94671941	     -6.53375554	     10.49284353	     -1.09465943	     -0.05676255	      0.60807705	     37.31178033	      0.24340646	    -19.88538737	    -16.75384401	     -6.92898686	      1.28935970	      1.77710355	     -8.95484120	     -6.28263978	      6.92629564	    -16.91306348	     13.55672376	     13.47513164	     16.98873721	      6.41871274	      4.94536293	    -13.62141398
      3.82000000	     -9.01078351	     -6.98166473	     10.29155192	     -1.08660043	     -0.05749471	      0.60842749	     37.58659206	      0.76034938	    -19.44169228	    -17.80387048	     -7.67565627	      0.40028710	      1.17314349	     -8.81629081	     -6.86178184	      6.29754491	    -17.91997017	     12.88156540	     14.19149101	     17.98047394	      6.67154504	      5.50866157	    -13.36523724
      3.82500000	     -9.08585502	     -7.41581105	     10.05939725	     -1.07855418	     -0.05813463	      0.60881537	     37.87956660	      1.28626573	    -18.94516226	    -18.90160424	     -8.28325687	     -0.55069717	      0.43482723	     -8.61701916	     -7.42838131	      5.63573457	    -19.02158660	     12.07309485	     14.94225432	     19.06850113	      6.92692139	      6.06061145	    -13.11296074
      3.83000000	     -9.14750293	     -7.84823461	      9.76040158	     -1.07044254	     -0.05865909	      0.60923309	     38.15143623	      1.85485642	    -18.43659014	    -20.03400430	     -8.68223777	     -1.36593370	     -0.56418974	     -8.40953865	     -8.00034411	      4.88551962	    -20.16775646	     11.07274550	     15.69963102	     20.51543590	      7.16858019	      6.63061707	    -12.74123065
      3.83500000	     -9.26379390	     -8.24584805	      9.50666874	     -1.06240942	     -0.05909960	      0.60966133	     38.44432197	      2.38911014	    -17.85224629	    -21.10254321	     -9.03515143	     -2.44364330	     -1.26853962	     -8.04002980	     -8.54354155	      4.19842482	    -21.49983179	      9.95757175	     16.55638205	     21.58797799	      7.46216170	      7.13398018	    -12.50292391
      3.84000000	     -9.35783172	     -8.63541119	      9.19590618	     -1.05432899	     -0.05940763	      0.61015802	     38.67684221	      2.97245135	    -17.28445458	    -22.12566949	     -9.24414755	     -3.41272549	     -1.97548031	     -7.66354966	     -9.10112850	      3.42943148	    -22.88325327	      8.65070033	     17.46963465	     22.93115857	      7.72536966	      7.64179322	    -12.16337159
      3.84500000	     -9.41705221	     -8.98380267	      8.88017960	     -1.04634843	     -0.05955573	      0.61068956	     38.83860723	      3.54648268	    -16.76319849	    -23.10225388	     -9.35362736	     -4.32432687	     -2.65458157	     -7.26756896	     -9.63316489	      2.72338222	    -24.33355136	      7.14613231	     18.34048570	     24.52037283	      7.92141869	      8.11084518	    -11.75322878
